<svg xmlns="http://www.w3.org/2000/svg" viewBox="0 0 512 512" width="512" height="512">
  <defs>
    <linearGradient id="bg" x1="0" y1="0" x2="1" y2="1">
      <stop offset="0" stop-color="#c8492b"/>
      <stop offset="0.55" stop-color="#e8603c"/>
      <stop offset="1" stop-color="#f2a93c"/>
    </linearGradient>
    <radialGradient id="sun" cx="0.82" cy="0.18" r="0.55">
      <stop offset="0" stop-color="#ffffff" stop-opacity="0.32"/>
      <stop offset="1" stop-color="#ffffff" stop-opacity="0"/>
    </radialGradient>
  </defs>
  <rect width="512" height="512" rx="112" fill="url(#bg)"/>
  <rect width="512" height="512" rx="112" fill="url(#sun)"/>
  <!-- Sun rays, top right -->
  <g fill="none" stroke="#ffffff" stroke-width="10" stroke-linecap="round" opacity="0.28">
    <path d="M330 92a90 90 0 0 1 90 90"/>
    <path d="M318 44a138 138 0 0 1 150 150"/>
  </g>
  <!-- P monogram -->
  <path fill="#ffffff" transform="translate(16 16) scale(15)"
        d="M9 23V9h8.2c3.2 0 5.3 1.9 5.3 4.8 0 2.9-2.1 4.8-5.3 4.8H13.4V23H9zm4.4-7.2h3.6c1.5 0 2.4-.9 2.4-2.2s-.9-2.2-2.4-2.2h-3.6v4.4z"/>
  <!-- Leaf accent -->
  <g transform="translate(332 386) rotate(-42)">
    <path fill="#fdf0da" d="M0 0C24-44 80-52 118-30C104 18 46 42 0 0z"/>
    <path fill="none" stroke="#e8603c" stroke-width="7" stroke-linecap="round" d="M10-2C40-8 76-14 108-24"/>
  </g>
</svg>
